<svg width="32" height="33" viewBox="0 0 32 33" fill="none" xmlns="http://www.w3.org/2000/svg">
<g id="alarm">
<mask id="mask0_68_1090" style="mask-type:alpha" maskUnits="userSpaceOnUse" x="0" y="0" width="32" height="33">
<rect id="Bounding box" y="0.25" width="32" height="32" fill="#D9D9D9"/>
</mask>
<g mask="url(#mask0_68_1090)">
<path id="alarm_2" d="M16.0001 28.9167C14.4274 28.9167 12.954 28.6192 11.5797 28.0243C10.2053 27.4294 9.00696 26.6209 7.98473 25.5987C6.96251 24.5764 6.15396 23.3781 5.55907 22.0037C4.96418 20.6294 4.66673 19.156 4.66673 17.5833C4.66673 16.0107 4.96418 14.5372 5.55907 13.163C6.15396 11.7885 6.96251 10.5902 7.98473 9.56799C9.00696 8.54576 10.2053 7.73721 11.5797 7.14232C12.954 6.54743 14.4274 6.24999 16.0001 6.24999C17.5727 6.24999 19.0462 6.54743 20.4204 7.14232C21.7948 7.73721 22.9932 8.54576 24.0154 9.56799C25.0376 10.5902 25.8462 11.7885 26.4411 13.163C27.036 14.5372 27.3334 16.0107 27.3334 17.5833C27.3334 19.156 27.036 20.6294 26.4411 22.0037C25.8462 23.3781 25.0376 24.5764 24.0154 25.5987C22.9932 26.6209 21.7948 27.4294 20.4204 28.0243C19.0462 28.6192 17.5727 28.9167 16.0001 28.9167ZM19.9641 22.9527L21.3694 21.5473L17.0001 17.1783V10.9167H15.0001V17.9883L19.9641 22.9527ZM7.67173 4.10132L9.07707 5.50632L3.92307 10.6603L2.51807 9.25499L7.67173 4.10132ZM24.3284 4.10132L29.4821 9.25499L28.0771 10.6603L22.9231 5.50632L24.3284 4.10132ZM16.0001 26.9167C18.5916 26.9167 20.7951 26.009 22.6104 24.1937C24.4257 22.3783 25.3334 20.1749 25.3334 17.5833C25.3334 14.9918 24.4257 12.7883 22.6104 10.973C20.7951 9.15765 18.5916 8.24999 16.0001 8.24999C13.4085 8.24999 11.2051 9.15765 9.38973 10.973C7.5744 12.7883 6.66673 14.9918 6.66673 17.5833C6.66673 20.1749 7.5744 22.3783 9.38973 24.1937C11.2051 26.009 13.4085 26.9167 16.0001 26.9167Z" fill="white"/>
</g>
</g>
</svg>
