<svg width="32" height="33" viewBox="0 0 32 33" fill="none" xmlns="http://www.w3.org/2000/svg">
<g id="apartment">
<mask id="mask0_68_1081" style="mask-type:alpha" maskUnits="userSpaceOnUse" x="0" y="0" width="32" height="33">
<rect id="Bounding box" y="0.75" width="32" height="32" fill="#D9D9D9"/>
</mask>
<g mask="url(#mask0_68_1081)">
<path id="apartment_2" d="M4.33337 28.1859V10.1859H9.66671V4.85254H22.3334V15.5192H27.6667V28.1859H17.6667V22.8525H14.3334V28.1859H4.33337ZM6.33337 26.1859H9.66671V22.8525H6.33337V26.1859ZM6.33337 20.8525H9.66671V17.5192H6.33337V20.8525ZM6.33337 15.5192H9.66671V12.1859H6.33337V15.5192ZM11.6667 20.8525H15V17.5192H11.6667V20.8525ZM11.6667 15.5192H15V12.1859H11.6667V15.5192ZM11.6667 10.1859H15V6.85254H11.6667V10.1859ZM17 20.8525H20.3334V17.5192H17V20.8525ZM17 15.5192H20.3334V12.1859H17V15.5192ZM17 10.1859H20.3334V6.85254H17V10.1859ZM22.3334 26.1859H25.6667V22.8525H22.3334V26.1859ZM22.3334 20.8525H25.6667V17.5192H22.3334V20.8525Z" fill="white"/>
</g>
</g>
</svg>
