<svg width="32" height="33" viewBox="0 0 32 33" fill="none" xmlns="http://www.w3.org/2000/svg">
<g id="call">
<mask id="mask0_68_1072" style="mask-type:alpha" maskUnits="userSpaceOnUse" x="0" y="0" width="32" height="33">
<rect id="Bounding box" y="0.25" width="32" height="32" fill="#D9D9D9"/>
</mask>
<g mask="url(#mask0_68_1072)">
<path id="call_2" d="M25.9203 27.5834C23.4076 27.5834 20.8833 26.9992 18.3473 25.8307C15.8115 24.6623 13.4816 23.0141 11.3576 20.8861C9.23385 18.7579 7.58774 16.4279 6.41929 13.8961C5.25085 11.3645 4.66663 8.84241 4.66663 6.32975C4.66663 5.92597 4.79996 5.58953 5.06663 5.32041C5.33329 5.0513 5.66663 4.91675 6.06663 4.91675H10.4153C10.752 4.91675 11.049 5.02664 11.3063 5.24642C11.5636 5.46597 11.7273 5.7373 11.7973 6.06041L12.5616 9.98341C12.6145 10.3474 12.6034 10.6602 12.5283 10.9217C12.453 11.1833 12.3178 11.403 12.123 11.5807L9.04363 14.5784C9.53918 15.486 10.1054 16.3445 10.7423 17.1541C11.379 17.9634 12.0683 18.7364 12.8103 19.4731C13.5418 20.2049 14.3196 20.8844 15.1436 21.5117C15.9676 22.1391 16.8574 22.7229 17.813 23.2631L20.805 20.2451C21.0136 20.028 21.2663 19.8757 21.563 19.7884C21.8594 19.7013 22.1675 19.68 22.4873 19.7244L26.1896 20.4784C26.5263 20.5673 26.8011 20.7391 27.014 20.9937C27.2268 21.2484 27.3333 21.5373 27.3333 21.8604V26.1834C27.3333 26.5834 27.1987 26.9167 26.9296 27.1834C26.6605 27.4501 26.3241 27.5834 25.9203 27.5834ZM8.09729 12.6861L10.477 10.4091C10.5196 10.3749 10.5474 10.3279 10.5603 10.2681C10.5732 10.2083 10.5711 10.1527 10.554 10.1014L9.97429 7.12175C9.95718 7.05353 9.92729 7.0023 9.88463 6.96808C9.84196 6.93386 9.7864 6.91675 9.71796 6.91675H6.86663C6.81529 6.91675 6.77251 6.93386 6.73829 6.96808C6.70429 7.0023 6.68729 7.04508 6.68729 7.09642C6.75551 8.00753 6.90463 8.93308 7.13463 9.87308C7.3644 10.8133 7.68529 11.751 8.09729 12.6861ZM19.6973 24.2091C20.5811 24.6211 21.5028 24.9361 22.4626 25.1541C23.4226 25.3719 24.3196 25.5013 25.1536 25.5424C25.205 25.5424 25.2477 25.5253 25.282 25.4911C25.3162 25.4569 25.3333 25.4141 25.3333 25.3627V22.5577C25.3333 22.4893 25.3162 22.4337 25.282 22.3911C25.2477 22.3484 25.1965 22.3185 25.1283 22.3014L22.3283 21.7321C22.277 21.715 22.2321 21.7129 22.1936 21.7257C22.1552 21.7386 22.1145 21.7664 22.0716 21.8091L19.6973 24.2091Z" fill="white"/>
</g>
</g>
</svg>
