<svg width="28" height="29" viewBox="0 0 28 29" fill="none" xmlns="http://www.w3.org/2000/svg">
<g id="check_circle">
<mask id="mask0_206_148" style="mask-type:alpha" maskUnits="userSpaceOnUse" x="0" y="0" width="28" height="29">
<rect id="Bounding box" y="0.25" width="28" height="28" fill="#D9D9D9"/>
</mask>
<g mask="url(#mask0_206_148)">
<path id="check_circle_2" d="M12.3442 19.2128L20.1877 11.3693L18.9583 10.1399L12.3442 16.754L9.01917 13.429L7.78979 14.6584L12.3442 19.2128ZM14.002 25.3334C12.469 25.3334 11.0281 25.0425 9.67921 24.4607C8.33035 23.879 7.15707 23.0894 6.15938 22.0921C5.16168 21.0948 4.37175 19.922 3.78958 18.5737C3.20761 17.2255 2.91663 15.7849 2.91663 14.2521C2.91663 12.7191 3.20751 11.2782 3.78929 9.92933C4.37107 8.58047 5.16061 7.40719 6.15792 6.4095C7.15522 5.4118 8.32801 4.62187 9.67629 4.03971C11.0246 3.45773 12.4651 3.16675 13.9979 3.16675C15.5309 3.16675 16.9718 3.45764 18.3207 4.03941C19.6696 4.62119 20.8428 5.41073 21.8405 6.40804C22.8382 7.40535 23.6282 8.57814 24.2103 9.92641C24.7923 11.2747 25.0833 12.7152 25.0833 14.248C25.0833 15.781 24.7924 17.222 24.2106 18.5708C23.6288 19.9197 22.8393 21.093 21.842 22.0907C20.8447 23.0884 19.6719 23.8783 18.3236 24.4605C16.9753 25.0424 15.5348 25.3334 14.002 25.3334Z" fill="white"/>
</g>
</g>
</svg>
