<svg width="3666" height="937" viewBox="0 0 3666 937" fill="none" xmlns="http://www.w3.org/2000/svg">
<g clip-path="url(#clip0_76_260)">
<path d="M756.445 200.273C724.023 168.633 685.938 144.414 642.188 127.617C598.438 110.82 552.148 102.422 503.32 102.422C452.539 102.422 405.859 111.406 363.281 129.375C320.703 146.953 283.789 172.148 252.539 204.961C221.68 237.383 197.656 275.859 180.469 320.391C163.672 364.922 155.273 413.945 155.273 467.461C155.273 520.586 163.672 569.609 180.469 614.531C197.266 659.062 220.898 697.734 251.367 730.547C281.836 763.359 317.969 788.75 359.766 806.719C401.562 824.688 447.461 833.672 497.461 833.672C543.555 833.672 585.938 826.055 624.609 810.82C663.672 795.195 697.852 773.32 727.148 745.195C756.836 716.68 780.664 682.891 798.633 643.828C816.992 604.375 828.32 561.016 832.617 513.75H510.352V432.305H924.023L926.953 470.391C926.953 537.188 916.406 598.32 895.312 653.789C874.609 709.258 845.117 757.305 806.836 797.93C768.555 838.555 723.242 870 670.898 892.266C618.555 914.141 560.938 925.078 498.047 925.078C433.594 925.078 374.023 913.75 319.336 891.094C265.039 868.047 217.578 836.016 176.953 795C136.719 753.984 105.469 705.938 83.2031 650.859C60.9375 595.391 49.8047 535.039 49.8047 469.805C49.8047 404.18 61.1328 343.438 83.7891 287.578C106.445 231.719 138.086 183.086 178.711 141.68C219.336 100.273 267.188 68.2422 322.266 45.5859C377.344 22.5391 437.305 11.0156 502.148 11.0156C563.477 11.0156 621.68 21.5625 676.758 42.6562C732.227 63.75 781.445 94.0234 824.414 133.477L756.445 200.273ZM1418.55 907.5H1315.43V531.914L974.414 28.5938H1099.8L1366.99 445.781L1635.35 28.5938H1760.16L1418.55 533.086V907.5ZM2530.66 907.5H2415.82L2206.05 550.078H1969.34V907.5H1866.21V28.5938H2199.61C2262.5 28.5938 2316.6 39.1406 2361.91 60.2344C2407.23 81.3281 2442.19 111.406 2466.8 150.469C2491.41 189.141 2503.71 235.43 2503.71 289.336C2503.71 352.227 2486.91 404.961 2453.32 447.539C2420.12 490.117 2373.44 519.609 2313.28 536.016L2530.66 907.5ZM1969.34 458.672H2193.16C2256.84 458.672 2306.84 443.633 2343.16 413.555C2379.88 383.477 2398.24 342.07 2398.24 289.336C2398.24 236.602 2380.08 195.195 2343.75 165.117C2307.42 135.039 2257.23 120 2193.16 120H1969.34V458.672Z" fill="#FFFFFF"/>
<path d="M3591.89 815.599C3595.51 818.799 3596.11 824.027 3593.23 827.276L3556.59 868.675C3553.71 871.924 3548.45 871.964 3544.83 868.765L3439.61 775.633C3436 772.433 3435.4 767.205 3438.27 763.956L3474.92 722.557C3477.79 719.307 3483.06 719.267 3486.67 722.467L3591.89 815.599Z" fill="#FFFFFF"/>
<path d="M2701.91 122.685C2698.36 119.546 2697.82 114.367 2700.69 111.118L2737.33 69.7183C2740.21 66.4691 2745.42 66.3799 2748.96 69.519L2852.19 160.882C2855.73 164.021 2856.28 169.2 2853.4 172.449L2816.76 213.849C2813.88 217.098 2808.68 217.187 2805.13 214.048L2701.91 122.685Z" fill="#FFFFFF"/>
<path d="M3517.48 892.632C3487.89 866.438 3485.13 821.212 3511.33 791.618C3537.52 762.024 3582.75 759.267 3612.34 785.461C3641.93 811.655 3644.69 856.881 3618.5 886.475C3592.3 916.069 3547.08 918.826 3517.48 892.632Z" fill="#FFFFFF"/>
<path d="M2776.64 45.7757C2806.23 71.9697 2808.99 117.195 2782.79 146.789C2756.6 176.384 2711.37 179.14 2681.78 152.946C2652.18 126.752 2649.43 81.5267 2675.62 51.9324C2701.82 22.3381 2747.04 19.5817 2776.64 45.7757Z" fill="#FFFFFF"/>
<circle cx="3147.4" cy="468.246" r="410" transform="rotate(-48.4878 3147.4 468.246)" stroke="#FFFFFF" stroke-width="83"/>
<path d="M3096.7 360.611C3113.13 359.636 3130 359.129 3147.2 359.129C3315.92 359.129 3452.7 407.925 3452.7 468.118C3452.7 528.311 3315.92 577.108 3147.2 577.108C3129.99 577.108 3113.11 576.6 3096.68 575.624C3095.11 564.603 3093.75 552.949 3092.65 540.652C3109.72 541.737 3127.86 542.331 3147.08 542.334H3147.2C3333.71 542.311 3417.92 486.552 3417.92 468.352C3417.92 450.152 3333.71 394.393 3147.2 394.37H3147.08C3127.85 394.372 3109.7 394.967 3092.62 396.053C3093.73 383.583 3095.1 371.773 3096.7 360.611Z" fill="#FFFFFF"/>
<path d="M3028.01 367.736C2918.51 384.305 2841.7 423.012 2841.7 468.118C2841.7 513.225 2918.51 551.931 3028.01 568.5C3026.61 556.961 3025.44 545.136 3024.53 533.068C2923.25 516.422 2876.36 481.932 2876.36 468.352C2876.36 454.773 2923.24 420.289 3024.49 403.642C3025.41 391.41 3026.59 379.426 3028.01 367.736Z" fill="#FFFFFF"/>
<path d="M3038.21 468.118C3038.21 299.397 3087.01 162.621 3147.2 162.621C3192.31 162.621 3231.01 239.426 3247.58 348.925C3236.04 347.524 3224.2 346.359 3212.13 345.445C3195.48 244.245 3161.01 197.395 3147.43 197.395C3147.36 197.395 3147.28 197.397 3147.2 197.4C3128.76 198.111 3073.47 282.401 3073.45 468.118V468.235C3073.47 653.952 3128.76 738.242 3147.2 738.953C3147.28 738.956 3147.36 738.958 3147.43 738.958C3161.01 738.958 3195.5 692.071 3212.15 590.79C3224.22 589.876 3236.04 588.712 3247.58 587.311C3231.01 696.81 3192.31 773.615 3147.2 773.615C3087.01 773.615 3038.21 636.84 3038.21 468.118Z" fill="#FFFFFF"/>
<path d="M3254.71 417.617C3255.68 434.045 3256.19 450.915 3256.19 468.118C3256.19 485.485 3255.67 502.514 3254.68 519.09C3243.66 520.664 3232 522.025 3219.7 523.125C3220.81 505.921 3221.41 487.631 3221.42 468.235V468.118C3221.41 448.854 3220.82 430.682 3219.73 413.58C3232.03 414.68 3243.68 416.042 3254.71 417.617Z" fill="#FFFFFF"/>
<circle cx="3147.2" cy="468.118" r="25.3116" fill="#FFFFFF"/>
</g>
<defs>
<clipPath id="clip0_76_260">
<rect width="3666" height="937" fill="white"/>
</clipPath>
</defs>
</svg>
