<svg width="1275" height="1275" viewBox="0 0 1275 1275" fill="none" xmlns="http://www.w3.org/2000/svg">
<g clip-path="url(#clip0_55_185)">
<path d="M1211.29 1085.85C1215.96 1089.99 1216.74 1096.74 1213.02 1100.94L1165.69 1154.41C1161.97 1158.61 1155.18 1158.66 1150.51 1154.53L1014.59 1034.23C1009.92 1030.1 1009.15 1023.34 1012.86 1019.15L1060.19 965.67C1063.91 961.473 1070.71 961.422 1075.38 965.555L1211.29 1085.85Z" fill="#032344"/>
<path d="M61.6862 190.809C57.1049 186.754 56.4025 180.064 60.1173 175.867L107.449 122.391C111.164 118.194 117.89 118.079 122.471 122.134L255.805 240.148C260.386 244.203 261.089 250.893 257.374 255.09L210.042 308.566C206.327 312.763 199.602 312.878 195.02 308.823L61.6862 190.809Z" fill="#032344"/>
<path d="M1115.18 1185.36C1076.95 1151.52 1073.39 1093.1 1107.22 1054.88C1141.06 1016.65 1199.48 1013.09 1237.7 1046.92C1275.93 1080.76 1279.49 1139.18 1245.66 1177.4C1211.82 1215.63 1153.4 1219.19 1115.18 1185.36Z" fill="#032344"/>
<path d="M158.214 91.4635C196.442 125.299 200.002 183.717 166.167 221.944C132.332 260.171 73.9137 263.732 35.6864 229.897C-2.54092 196.062 -6.10145 137.643 27.7337 99.4161C61.5689 61.1888 119.987 57.6283 158.214 91.4635Z" fill="#032344"/>
<circle cx="637.13" cy="637.171" r="529.602" transform="rotate(-48.4878 637.13 637.171)" stroke="#032344" stroke-width="107.212"/>
<path d="M571.644 498.141C592.863 496.882 614.656 496.227 636.877 496.227C854.816 496.227 1031.49 559.257 1031.49 637.01C1031.49 714.762 854.816 777.793 636.877 777.793C614.648 777.793 592.849 777.137 571.622 775.877C569.591 761.64 567.835 746.586 566.417 730.703C588.467 732.104 611.895 732.872 636.726 732.875H636.876C877.79 732.845 986.573 660.82 986.573 637.311C986.573 613.802 877.79 541.777 636.877 541.747H636.726C611.879 541.751 588.438 542.519 566.376 543.922C567.806 527.814 569.584 512.558 571.644 498.141Z" fill="#032344"/>
<path d="M482.913 507.345C341.473 528.747 242.262 578.745 242.262 637.01C242.262 695.274 341.473 745.272 482.913 766.674C481.104 751.769 479.601 736.494 478.42 720.905C347.593 699.404 287.029 654.852 287.029 637.311C287.03 619.772 347.579 575.228 478.374 553.724C479.562 537.924 481.081 522.444 482.913 507.345Z" fill="#032344"/>
<path d="M496.094 637.009C496.094 419.069 559.124 242.395 636.877 242.395C695.141 242.395 745.139 341.605 766.542 483.046C751.629 481.236 736.345 479.731 720.747 478.551C699.237 347.829 654.713 287.312 637.178 287.312C637.079 287.312 636.978 287.314 636.877 287.318C613.06 288.237 541.644 397.116 541.615 637.009V637.159C541.644 877.052 613.06 985.932 636.877 986.85C636.978 986.854 637.079 986.856 637.178 986.856C654.72 986.856 699.271 926.292 720.772 795.465C736.361 794.285 751.637 792.781 766.542 790.972C745.139 932.413 695.141 1031.62 636.877 1031.62C559.124 1031.62 496.094 854.949 496.094 637.009Z" fill="#032344"/>
<path d="M775.745 571.776C777.004 592.996 777.66 614.788 777.66 637.009C777.66 659.442 776.992 681.439 775.709 702.85C761.472 704.884 746.417 706.642 730.532 708.062C731.957 685.839 732.739 662.214 732.742 637.159V637.009C732.739 612.126 731.968 588.652 730.561 566.562C746.449 567.983 761.506 569.742 775.745 571.776Z" fill="#032344"/>
<circle cx="636.876" cy="637.008" r="32.6953" fill="#032344"/>
</g>
<defs>
<clipPath id="clip0_55_185">
<rect width="1275" height="1275" rx="89" fill="white"/>
</clipPath>
</defs>
</svg>
