<svg width="32" height="33" viewBox="0 0 32 33" fill="none" xmlns="http://www.w3.org/2000/svg">
<g id="mail">
<mask id="mask0_68_1040" style="mask-type:alpha" maskUnits="userSpaceOnUse" x="0" y="0" width="32" height="33">
<rect id="Bounding box" y="0.75" width="32" height="32" fill="#D9D9D9"/>
</mask>
<g mask="url(#mask0_68_1040)">
<path id="mail_2" d="M5.74371 26.75C5.07015 26.75 4.50004 26.5167 4.03337 26.05C3.56671 25.5833 3.33337 25.0132 3.33337 24.3397V9.16033C3.33337 8.48678 3.56671 7.91667 4.03337 7.45C4.50004 6.98333 5.07015 6.75 5.74371 6.75H26.2564C26.9299 6.75 27.5 6.98333 27.9667 7.45C28.4334 7.91667 28.6667 8.48678 28.6667 9.16033V24.3397C28.6667 25.0132 28.4334 25.5833 27.9667 26.05C27.5 26.5167 26.9299 26.75 26.2564 26.75H5.74371ZM16 17.4937L5.33337 10.673V24.3397C5.33337 24.4594 5.37182 24.5578 5.44871 24.6347C5.5256 24.7116 5.62393 24.75 5.74371 24.75H26.2564C26.3762 24.75 26.4745 24.7116 26.5514 24.6347C26.6283 24.5578 26.6667 24.4594 26.6667 24.3397V10.673L16 17.4937ZM16 15.4167L26.4617 8.75H5.53837L16 15.4167ZM5.33337 10.673V8.75V24.3397C5.33337 24.4594 5.37182 24.5578 5.44871 24.6347C5.5256 24.7116 5.62393 24.75 5.74371 24.75H5.33337V10.673Z" fill="white"/>
</g>
</g>
</svg>
